<?xml version="1.0" standalone="no"?><!DOCTYPE svg PUBLIC "-//W3C//DTD SVG 1.1//EN" "http://www.w3.org/Graphics/SVG/1.1/DTD/svg11.dtd"><svg t="1550632202332" class="icon" style="" viewBox="0 0 1024 1024" version="1.1" xmlns="http://www.w3.org/2000/svg" p-id="2348" xmlns:xlink="http://www.w3.org/1999/xlink" width="48" height="48"><defs><style type="text/css"></style></defs><path d="M868.789521 184.601368l-0.826831 474.147904-171.693384-0.299829c-11.977799-0.019443-23.470551 2.282996-34.44244 6.927783s-20.800745 11.291161-29.495778 19.912515L510.333546 806.865681 387.764999 684.864046c-3.988848-4.669346-8.480138-8.670473-13.44829-12.002358-4.984524-3.324722-10.135848-5.985318-15.449877-8.013511-5.329379-2.00261-10.972912-3.683902-16.95823-5.000897-5.972015-1.333368-11.978822-2.013867-17.98256-2.043542l-171.681104-0.298805 0.822738-474.14688 715.682959 1.243317L868.789521 184.601368 868.789521 184.601368zM888.893394 94.78476 133.298424 93.471858c-19.291368-0.034792-35.783994 6.589069-49.457412 19.878746-13.671371 13.290701-20.524452 29.577642-20.559245 48.869011l-0.896416 516.03592c-0.033769 19.295462 6.760984 35.623335 20.388353 48.947805 13.623275 13.328563 30.092365 20.019962 49.38885 20.055778l191.639668 0.327458 173.407422 174.980243c3.297093 3.326768 7.631818 5.001921 12.950963 5.01113 1.344624 0.005117 2.670829-0.319272 3.993964-0.970094l7.995091-3.997034 173.995823-174.3724 191.646831 0.332575c19.289322 0.029676 35.785018-6.598278 49.456389-19.878746 13.670348-13.280468 20.524452-29.582759 20.555152-48.880267l0.899486-516.03592c0.035816-19.291368-6.763031-35.602869-20.386306-48.942689-13.624299-13.33368-30.094412-20.015869-49.38885-20.049638L888.893394 94.783737 888.893394 94.78476zM243.499291 419.561681c0.028653-16.308431 5.877871-30.277584 17.551748-41.903366 11.654434-11.634991 25.492604-17.435091 41.466414-17.410532 6.642281 0.01535 12.977569 1.033539 18.962887 3.037173 5.966898 2.01796 11.464099 4.859681 16.463973 8.524141 4.983501 3.679809 9.314133 8.004301 12.951987 12.990872 3.625574 4.991688 6.441713 10.494005 8.464789 16.504906 2.009773 6.000668 2.994194 12.338003 2.964518 18.981307-0.042979 24.610514-11.378142 42.221614-34.051537 52.827159-7.989975 3.987824-16.649192 5.982248-25.979698 5.966898-15.956414-0.028653-29.776164-5.877871-41.384549-17.542538C249.273808 449.863824 243.469616 435.869089 243.499291 419.561681L243.499291 419.561681 243.499291 419.561681zM451.115839 420.441725c0.01842-11.310603 2.703575-21.460778 8.05649-30.435173 5.317099-8.975419 12.497639-16.121166 21.491477-21.425985 8.993838-5.310959 18.977213-7.951089 29.978778-7.930623 10.979052 0.019443 20.957311 2.693342 29.931706 8.03807 8.993838 5.340635 16.133446 12.505825 21.436218 21.494547 5.302773 8.994861 7.951089 19.144012 7.931646 30.459732-0.029676 15.975856-5.876847 29.764907-17.551748 41.399899-11.666714 11.624758-25.654286 17.424858-41.958624 17.395182-16.314571-0.029676-30.277584-5.878894-41.908482-17.542538C456.88524 450.227098 451.08514 436.403255 451.115839 420.441725L451.115839 420.441725 451.115839 420.441725zM660.749324 420.286182c0.022513-16.308431 5.876847-30.278607 17.551748-41.903366 11.666714-11.629875 25.492604-17.435091 41.461297-17.405415 11.291161 0.019443 21.452591 2.704598 30.426987 8.048303 8.973372 5.329379 16.110933 12.505825 21.415752 21.500687 5.319146 8.988722 7.952112 19.138896 7.930623 30.449499-0.022513 15.968693-5.876847 29.763884-17.531282 41.393759-11.669784 11.623735-25.654286 17.423835-41.97295 17.400299-16.317641-0.020466-30.2827-5.874801-41.918715-17.546631-11.627828-11.668761-17.413602-25.654286-17.383926-41.961694L660.749324 420.286182 660.749324 420.286182zM660.749324 420.286182" p-id="2349" fill="#ffffff"></path></svg>